<?xml version="1.0" encoding="utf-8"?>
<!-- Generator: Adobe Illustrator 18.0.0, SVG Export Plug-In . SVG Version: 6.00 Build 0)  -->
<!DOCTYPE svg PUBLIC "-//W3C//DTD SVG 1.1//EN" "http://www.w3.org/Graphics/SVG/1.1/DTD/svg11.dtd">
<svg version="1.1" id="Layer_1" xmlns="http://www.w3.org/2000/svg" xmlns:xlink="http://www.w3.org/1999/xlink" x="0px" y="0px"
	 viewBox="0 0 64 64" enable-background="new 0 0 64 64" xml:space="preserve">
<g>
	<g>
		<g>
			<g>
				<path d="M46,64H18c-3.3,0-6-2.7-6-6V6c0-3.3,2.7-6,6-6h28c3.3,0,6,2.7,6,6v52C52,61.3,49.3,64,46,64z M18,4c-1.1,0-2,0.9-2,2v52
					c0,1.1,0.9,2,2,2h28c1.1,0,2-0.9,2-2V6c0-1.1-0.9-2-2-2H18z"/>
			</g>
		</g>
	</g>
	<g>
		<g>
			<g>
				<circle cx="32" cy="56" r="2.5"/>
			</g>
		</g>
	</g>
	<g>
		<g>
			<g>
				<path d="M36,10h-8c-1.1,0-2-0.9-2-2s0.9-2,2-2h8c1.1,0,2,0.9,2,2S37.1,10,36,10z"/>
			</g>
		</g>
	</g>
	<g>
		<g>
			<g>
				<path d="M44,52H20c-1.1,0-2-0.9-2-2V14c0-1.1,0.9-2,2-2h24c1.1,0,2,0.9,2,2v36C46,51.1,45.1,52,44,52z M22,48h20V16H22V48z"/>
			</g>
		</g>
	</g>
</g>
</svg>
